<svg width="17" height="18" viewBox="0 0 17 18" fill="none" xmlns="http://www.w3.org/2000/svg">
<path d="M16.853 16.5666L12.7208 12.4354C13.8292 11.1613 14.5003 9.499 14.5003 7.68215C14.5003 3.68282 11.2466 0.433594 7.25017 0.433594C3.24994 0.433594 0 3.68659 0 7.68215C0 11.6777 3.25372 14.9307 7.25017 14.9307C9.06742 14.9307 10.7301 14.2598 12.0044 13.1516L16.1366 17.2828C16.2346 17.3808 16.3666 17.4336 16.4948 17.4336C16.623 17.4336 16.7549 17.3846 16.853 17.2828C17.049 17.0868 17.049 16.7626 16.853 16.5666ZM1.01419 7.68215C1.01419 4.24446 3.81171 1.45133 7.2464 1.45133C10.6849 1.45133 13.4786 4.24823 13.4786 7.68215C13.4786 11.1161 10.6849 13.9167 7.2464 13.9167C3.81171 13.9167 1.01419 11.1198 1.01419 7.68215Z" fill="#687C94"/>
</svg>
